<svg width="804" height="794" viewBox="0 0 804 794" fill="none" xmlns="http://www.w3.org/2000/svg">
<path fill-rule="evenodd" clip-rule="evenodd" d="M172.5 2.07914C135.124 9.93315 108.93 33.8372 97.897 70.1591C96.213 75.7061 96.037 77.3872 97.018 78.5692C98.09 79.8612 116.683 80.0471 244.467 80.0471C382.477 80.0471 390.776 79.9491 392.221 78.2971C394.838 75.3051 436 3.15215 436 1.55615C436 0.21815 421.57 0.0551545 308.75 0.117155C187.931 0.184155 181.045 0.283145 172.5 2.07914ZM481.684 1.49615C474.899 3.91515 474.284 4.85015 463.201 29.5471C458.329 40.4041 419.536 127.789 416.921 133.797L415.071 138.047H457.788H500.505L514.866 107.297C522.765 90.3841 529.629 76.1161 530.121 75.5901C531.692 73.9071 533.39 76.9541 543.754 100.047C549.308 112.422 557.987 131.772 563.041 143.047C568.096 154.322 579.844 180.328 589.15 200.837C598.455 221.347 605.802 238.559 605.475 239.087C605.11 239.679 586.555 240.047 557.121 240.047H509.36L501.027 260.102L492.694 280.157L494.725 283.852C495.842 285.884 497.296 289.235 497.956 291.297L499.155 295.047H516.411C525.902 295.047 533.906 295.286 534.198 295.578C534.49 295.87 533.658 299.133 532.349 302.828C524.216 325.783 525.228 323.833 521.092 324.531C515.737 325.436 511.589 328.262 507.649 333.691C503.842 338.938 496.51 353.169 495.461 357.348L494.783 360.047H542.657H590.531L592.367 354.797C594.869 347.644 603.421 332.803 607.587 328.386C609.464 326.395 611 324.605 611 324.407C611 324.209 606.725 324.047 601.5 324.047C596.275 324.047 592.004 323.935 592.008 323.797C592.013 323.659 594.376 317.312 597.258 309.691L602.5 295.835L613.82 295.343C632.571 294.528 629.458 291.53 644.414 324.81C651.517 340.615 658.015 354.11 658.855 354.797C660.756 356.353 736.519 356.634 737.475 355.088C738.021 354.204 734.813 345.849 724.979 322.547C712.633 293.291 687.978 234.534 680.499 216.547C659.059 164.979 646.44 135.534 612.355 57.5471C588.97 4.04015 588.626 3.44915 579.516 1.15515C572.636 -0.576851 486.657 -0.277848 481.684 1.49615ZM80.2 138.797C78.837 139.978 74.586 151.611 67.138 174.547C61.065 193.247 55.799 209.79 55.436 211.31C53.978 217.418 46.669 217.047 168.431 217.047C255.849 217.047 279.964 216.78 281.238 215.797C282.13 215.11 289.926 199.472 298.564 181.047C319.659 136.051 318.051 139.814 316.816 138.326C315.966 137.301 292.581 137.047 198.988 137.047C89.219 137.047 82.1 137.152 80.2 138.797ZM354.502 144.622C352.853 145.482 350.773 146.847 349.879 147.656C348.985 148.465 343.032 160.922 336.65 175.337C330.268 189.753 315.586 222.912 304.023 249.025C292.46 275.138 283 297.726 283 299.219C283 300.713 284.056 303.163 285.347 304.664L287.694 307.393L377.475 307.755C439.441 308.005 468.259 307.787 470.495 307.049C476.246 305.151 478.902 301.243 485.46 285.033C488.906 276.516 495.582 260.097 500.296 248.547C534.836 163.912 537.999 155.83 537.968 152.272C537.933 148.193 536.664 145.994 533.316 144.21C531.703 143.351 508.411 143.049 444.316 143.053C367.542 143.059 357.153 143.24 354.502 144.622ZM513.933 161.467C514.87 162.596 513.341 167.152 506.465 183.717C501.709 195.173 494.192 213.322 489.759 224.047C470.176 271.428 463.744 286.629 462.783 287.797C461.977 288.777 444.976 289.047 383.937 289.047C340.718 289.047 305.878 288.659 305.579 288.175C305.282 287.695 307.553 281.732 310.625 274.925C313.697 268.117 323.844 244.997 333.175 223.547C342.505 202.097 352.204 179.822 354.728 174.047C357.252 168.272 359.991 162.759 360.814 161.797C362.214 160.159 367.129 160.047 437.533 160.047C501.285 160.047 512.935 160.263 513.933 161.467ZM38.248 275.753C37.009 275.992 35.601 276.943 35.119 277.867C34.637 278.791 28.967 296.095 22.519 316.321C12.998 346.184 11.025 353.373 12.02 354.571C13.085 355.855 26.651 356.047 116.188 356.047C185.237 356.047 219.768 355.706 221.066 355.012C222.13 354.442 223 353.544 223 353.015C223 352.486 230.67 335.33 240.045 314.89C249.42 294.45 256.86 277.123 256.577 276.387C256.151 275.277 237.521 275.07 148.281 275.183C89.002 275.258 39.487 275.515 38.248 275.753ZM603.317 282.797C603.557 283.21 599.757 294.122 594.872 307.047C589.987 319.972 585.236 332.909 584.313 335.797L582.635 341.047H552.817C524.745 341.047 523 340.941 523 339.243C523 336.256 541.185 285.734 543.083 283.447C544.03 282.305 549.656 282.047 573.563 282.047C589.689 282.047 603.078 282.384 603.317 282.797ZM487.162 292.951C482.86 303.471 480.362 306.944 475.093 309.723L470.685 312.047H419.843C379.83 312.047 369.002 312.313 369.009 313.297C369.014 313.985 371.039 321.702 373.509 330.447C375.979 339.192 378 346.729 378 347.197C378 347.664 370.913 348.049 362.25 348.051C348.393 348.054 346.115 348.289 343.299 350.007C339.907 352.075 337.44 355.918 336.854 360.047L336.5 362.547L352 362.838C360.525 362.998 390.225 363.689 418 364.373C465.257 365.536 469.046 365.502 477 363.849C490.027 361.14 490 361.15 490 359.189C490 357.135 499.065 338.169 502.051 333.976C503.123 332.47 504 330.469 504 329.53C504 326.372 491.664 285.047 490.721 285.047C490.541 285.047 488.939 288.604 487.162 292.951ZM548.687 293.693C546.693 295.687 549.738 296.047 568.583 296.047C584.605 296.047 589.074 295.77 588.751 294.797C588.441 293.867 583.353 293.478 568.855 293.276C558.14 293.128 549.065 293.315 548.687 293.693ZM545 305.577C545 306.884 546.842 307.066 557.668 306.827C566.708 306.627 570.455 306.189 570.752 305.297C571.07 304.34 568.105 304.047 558.083 304.047C547.007 304.047 545 304.282 545 305.577ZM540.667 315.714C538.657 317.723 541.815 318.064 560.167 317.818C575.216 317.616 580.44 317.23 580.751 316.297C581.074 315.325 576.738 315.047 561.25 315.047C550.296 315.047 541.033 315.347 540.667 315.714ZM536.67 327.464C536.371 328.244 536.66 329.074 537.313 329.308C539.102 329.951 561.901 329.479 562.596 328.784C564.559 326.821 560.87 326.047 549.548 326.047C539.827 326.047 537.099 326.347 536.67 327.464ZM612.28 328.853C610.728 329.839 601.859 344.544 597.688 353.047L594.5 359.547L594.192 394.784L593.883 430.021L596.486 432.624C599.585 435.723 599.913 435.628 609.573 428.803C615.382 424.699 617.566 422.434 619.539 418.469L622.066 413.392L621.783 372.823C621.516 334.553 621.392 332.136 619.595 330.151C617.658 328.012 614.488 327.45 612.28 328.853ZM494.667 364.714C494.3 365.08 494 379.495 494 396.746C494 430.073 494.437 433.605 498.85 435.967C500.213 436.696 516.034 437.047 547.589 437.047H594.31L592.405 434.943C590.622 432.974 590.482 430.638 590.213 398.443L589.925 364.047H542.629C516.617 364.047 495.033 364.347 494.667 364.714ZM248.731 367.459C247.16 369.03 247 372.222 247 401.963C247 432.213 247.138 434.862 248.794 436.361C250.904 438.27 249.914 438.234 378.931 441.099C457.242 442.838 466.604 442.882 468.681 441.52L471 440.001V407.024C471 376.042 470.886 373.933 469.114 372.161C467.442 370.489 465.019 370.205 447.864 369.666C415.876 368.663 341.006 367.056 294.323 366.371C253.561 365.774 250.339 365.851 248.731 367.459ZM481.095 368.285C477.022 368.691 473.498 369.215 473.264 369.45C473.03 369.684 473.324 370.785 473.919 371.896C474.63 373.225 475 385.056 475 406.481C475 424.392 475.264 439.047 475.588 439.047C476.072 439.047 489.5 431.886 489.5 431.628C489.5 431.583 489.275 417.147 489 399.547L488.5 367.547L481.095 368.285ZM373 383.645C423.154 384.658 452.961 385.627 453.75 386.271C454.672 387.024 455 392.371 455 406.634C455 424.998 454.898 426.031 452.986 427.055C451.537 427.83 435.462 427.698 395.736 426.585C365.356 425.734 323.284 424.642 302.243 424.159C274.4 423.52 263.58 422.943 262.493 422.041C260.254 420.183 260.28 383.549 262.521 382.295C263.358 381.827 270.671 381.577 278.771 381.741C286.872 381.905 329.275 382.762 373 383.645ZM265 402.899V419.751L294.75 420.433C311.112 420.808 338.675 421.529 356 422.034C373.325 422.539 401.788 423.246 419.25 423.606L451 424.26V406.77V389.28L415.25 388.605C395.587 388.234 361.275 387.513 339 387.001C316.725 386.49 290.962 386.066 281.75 386.059L265 386.047V402.899ZM436.25 399.001C441.123 404.454 439.457 413.208 432.901 416.598C429.309 418.456 427.593 418.422 423.357 416.412C419.431 414.549 417 410.579 417 406.031C417 396.091 429.553 391.507 436.25 399.001ZM425.7 402.797C424.92 406.7 426.299 412.547 428 412.547C429.701 412.547 431.08 406.7 430.3 402.797C429.951 401.054 429.109 400.047 428 400.047C426.891 400.047 426.049 401.054 425.7 402.797ZM55.5 454.673C54.4 454.889 51.025 455.561 48 456.165C40.38 457.686 28.726 463.228 22.583 468.252C15.391 474.133 10.484 480.349 6.409 488.738C0.207996 501.507 -0.171005 505.401 0.188995 552.547L0.509995 594.547L3.23399 602.024C8.75199 617.174 19.112 628.681 33.361 635.49C46.89 641.954 48.185 642.047 125.024 642.047C169.429 642.047 194.803 641.688 196.01 641.042C197.8 640.084 214.5 611.638 214.5 609.547C214.5 608.894 189 608.374 141 608.047L67.5 607.547L62.585 605.128C55.684 601.731 50.324 595.877 48.504 589.749C47.635 586.823 47 580.749 47 575.365V566.047H110.851C153.366 566.047 175.721 565.692 177.751 564.984C180.298 564.096 182.218 561.402 189.4 548.639C194.13 540.234 198 533.062 198 532.702C198 532.342 169.538 532.057 134.75 532.069C75.229 532.09 71.258 532.201 67.401 533.952C64.271 535.374 61.552 538.188 55.901 545.855C51.83 551.378 48.133 555.93 47.684 555.972C47.234 556.013 47.009 545.57 47.184 532.766C47.492 510.063 47.564 509.361 50.055 504.525C53.081 498.649 59.097 493.768 66.294 491.348C70.957 489.781 77.994 489.543 133.715 489.072C187.251 488.62 196.128 488.338 197.35 487.047C199.241 485.049 215 456.576 215 455.158C215 454.352 193.408 454.079 136.25 454.163C92.938 454.227 56.6 454.456 55.5 454.673ZM495 512.174C485.108 513 479.949 514.475 471.503 518.89C457.297 526.315 447.817 539.626 444.415 556.924C441.864 569.893 442.822 593.82 446.321 604.547C452.073 622.182 462.217 632.607 479.609 638.757L487.5 641.547H533C574.313 641.547 579.047 641.378 584.448 639.712C604.138 633.635 616.137 621.271 621.555 601.474C623.989 592.582 624.605 568.727 622.685 557.715C619.036 536.79 607.922 523.037 588.474 515.38C581.579 512.666 581.201 512.631 555 512.333C540.425 512.167 522.65 511.922 515.5 511.789C508.35 511.656 499.125 511.829 495 512.174ZM727.5 512.047L675.5 512.547L668.704 515.422C657.383 520.211 650.291 528.968 648.015 540.968C644.887 557.461 649.508 572.972 659.813 580.579C670.11 588.178 683.362 590.047 726.958 590.047C756.266 590.047 756.754 590.081 760.088 592.327C761.948 593.581 764.059 595.719 764.777 597.077C766.503 600.342 765.728 607.577 763.368 610.226C759.172 614.936 757.933 615.046 708.782 615.062C674.019 615.073 661.911 615.384 660.134 616.312C658.31 617.264 644 639.761 644 641.677C644 642.583 764.016 641.948 769.787 641.012C780.322 639.302 786.885 636.293 792.649 630.528C800.028 623.149 802.438 615.145 801.779 600.207C800.944 581.278 794.607 572.045 778.832 566.771C772.959 564.809 769.67 564.613 733.5 564.076C691.444 563.452 689.306 563.178 685.631 557.93C683.038 554.229 683.488 546.809 686.523 543.202C690.557 538.408 694.536 538.047 743.394 538.047C785.623 538.047 787.77 537.958 789.407 536.149C791.069 534.313 804.079 512.737 803.692 512.46C802.778 511.806 770.673 511.632 727.5 512.047ZM239 592.044V672.12L256.993 672.001L274.986 671.882L275.243 605.349L275.5 538.815L315.237 538.981C358.892 539.163 361.362 539.448 369.815 545.264C379.112 551.66 382.607 561.774 381.739 579.765C380.89 597.367 377.07 604.424 365.239 610.252L358.55 613.547L328.025 614.062C311.236 614.345 296.812 614.918 295.972 615.334C294.427 616.099 282 638.986 282 641.066C282 641.889 294.171 642.087 327.25 641.802C376.875 641.376 377.346 641.325 390.762 634.922C399.418 630.791 409.021 621.297 412.953 612.983C417.967 602.38 419.5 593.614 419.499 575.547C419.499 561.801 419.173 558.422 417.188 551.561C411.725 532.683 401.853 522.618 381.004 514.672C375.64 512.628 373.765 512.567 307.25 512.271L239 511.969V592.044ZM560.294 539.069C564.031 539.609 568.756 540.912 570.794 541.964C575.961 544.632 581.484 550.639 584.201 556.547C586.275 561.059 586.5 563.012 586.5 576.547C586.5 590.642 586.342 591.884 583.88 597.133C580.69 603.936 575.224 609.587 569.089 612.424C564.729 614.441 562.98 614.547 534 614.547H503.5L497.933 611.936C485.627 606.165 480.991 597.505 480.234 578.873C479.832 568.997 480.079 566.145 481.839 560.35C485.398 548.633 493.948 541.204 506.226 539.159C513.55 537.939 552.039 537.875 560.294 539.069ZM13.248 706.087C6.512 720.458 1 732.653 1 733.186C1 733.72 3.07001 734.019 5.60001 733.852L10.201 733.547L14.513 724.047C16.885 718.822 21.035 709.673 23.735 703.716C26.436 697.759 29.002 692.809 29.439 692.716C30.132 692.568 38.809 710.396 38.947 712.253C38.976 712.642 35.793 713.092 31.873 713.253C25.162 713.53 24.601 713.736 22.245 716.797L19.744 720.047H30.892H42.041L45.297 726.797L48.554 733.547L53.363 733.855C57.647 734.13 58.108 733.963 57.587 732.322C57.266 731.309 51.889 719.245 45.64 705.513L34.277 680.547L29.887 680.252L25.497 679.958L13.248 706.087ZM105.121 681.757C95.87 686.315 95.524 701.5 104.545 707.075C106.76 708.444 110.991 709.482 117.163 710.171C131.79 711.804 135.404 714.316 133.58 721.582C132.648 725.298 129.429 726.047 114.384 726.047H100.898L99.449 729.515C98.652 731.422 98 733.222 98 733.515C98 733.808 105.538 734.037 114.75 734.025C128.885 734.007 132.136 733.714 135.576 732.152C144.654 728.029 145.735 713.703 137.459 707.193C134.846 705.138 130.194 703.957 117.5 702.127C112.357 701.386 110.036 700.548 108.75 698.972C106.433 696.13 106.534 692.513 109 690.047C110.802 688.245 112.333 688.047 124.48 688.047H137.959L140 684.047L142.041 680.047L125.27 680.07C111.681 680.088 107.859 680.408 105.121 681.757ZM191.334 682.111C185.944 684.779 183.593 689.457 184.243 696.22C185.072 704.848 190.306 708.577 203.777 710.135C214.447 711.37 217.409 712.454 218.87 715.662C220.452 719.133 220.298 720.398 217.927 723.412C215.86 726.041 215.82 726.047 201.453 726.047H187.051L185.526 728.997C184.687 730.62 184 732.456 184 733.078C184 733.889 189.033 734.115 201.797 733.878C221.458 733.512 223.15 733.035 227.103 726.743C229.966 722.185 229.355 713.124 225.937 709.466C222.149 705.411 218.652 704.05 209.223 702.959C204.425 702.403 199.245 701.46 197.712 700.861C192.816 698.95 191.469 693.578 195 690.047C196.801 688.246 198.333 688.047 210.378 688.047C224.555 688.047 224.54 688.052 226.783 682.797L227.957 680.047L211.729 680.048C197.352 680.048 195.025 680.284 191.334 682.111ZM285.222 681.463C275.396 684.655 270.323 691.805 269.31 703.891C268.256 716.464 272.133 725.697 280.535 730.621C284.271 732.81 286.74 733.397 293.926 733.807C309.628 734.702 318.423 730.858 323.365 720.942C325.602 716.452 325.997 714.364 325.978 707.101C325.946 694.497 322.291 687.366 313.5 682.754C308.391 680.073 291.825 679.317 285.222 681.463ZM382.34 681.482C376.099 683.434 372.242 686.65 369.265 692.385C366.953 696.837 366.579 698.785 366.542 706.547C366.505 714.438 366.846 716.253 369.312 721.273C374.342 731.516 380.553 734.047 400.659 734.047H414V730.121V726.195L399.569 725.871C386.866 725.586 384.81 725.301 382.388 723.49C377.902 720.136 375.588 714.541 375.588 707.047C375.588 698.735 378.123 693.435 383.588 690.313C387.047 688.338 388.923 688.078 399.801 688.063L412.102 688.047L413.551 684.579C414.348 682.672 415 680.872 415 680.579C415 679.428 386.378 680.219 382.34 681.482ZM457 707.047V734.047H461.5H466V707.047V680.047H461.5H457V707.047ZM518.921 706.155C512.089 720.514 506.35 732.664 506.167 733.155C505.983 733.646 508.05 734.047 510.76 734.047H515.687L524.843 714.012C529.88 702.992 534 693.505 534 692.928C534 689.91 536.589 693.647 540.553 702.387C542.999 707.78 545 712.385 545 712.62C545 712.855 541.737 713.053 537.75 713.059C530.573 713.072 530.477 713.107 528.241 716.559L525.982 720.047H537.073H548.165L551.275 727.047L554.385 734.047H559.193C561.837 734.047 564 733.845 564 733.597C564 732.774 556.414 715.766 548.032 697.797L539.751 680.047H535.547H531.342L518.921 706.155ZM593 684.047V688.047H601H609V711.047V734.047H613.5H618V711.047V688.047H626.5H635V684.047V680.047H614H593V684.047ZM681.763 681.612C676.495 684.47 675.999 686.945 676.015 710.247C676.024 721.962 676.394 732.119 676.838 732.819C677.456 733.793 682.298 734.027 697.572 733.819L717.5 733.547L717.809 729.822L718.118 726.097L701.809 725.822L685.5 725.547L685.208 717.797L684.916 710.047H698.983H713.05L714.025 707.482C714.561 706.071 715 704.496 715 703.982C715 703.451 709.516 703.047 702.314 703.047C690.666 703.047 689.44 703.225 687.314 705.221L685 707.396V698.921C685 693.664 685.455 689.992 686.2 689.247C687.017 688.43 691.794 688.047 701.174 688.047H714.949L716.474 685.097C717.313 683.474 718 681.674 718 681.097C718 679.324 685.117 679.792 681.763 681.612ZM766.035 681.353C755.798 684.879 755.214 702.089 765.157 707.249C767.068 708.24 773.474 709.688 779.394 710.465C791.861 712.103 794 713.374 794 719.145C794 725.321 792.032 726.047 775.291 726.047H761.027L759.513 729.669C758.681 731.661 758 733.461 758 733.669C758 733.877 765.538 734.037 774.75 734.025C789.022 734.006 792.117 733.723 795.672 732.109C801.235 729.583 803.152 726.42 803.213 719.664C803.31 708.879 798.358 704.779 783.162 703.063C778.026 702.482 772.567 701.357 771.029 700.562C766.24 698.086 766.2 691.616 770.957 689.07C772.008 688.507 778.665 688.047 785.749 688.047H798.63L800.315 684.513C801.242 682.569 802 680.769 802 680.513C802 679.457 769.324 680.221 766.035 681.353ZM309.677 690.652C314.709 694.403 316.5 698.708 316.5 707.047C316.5 715.386 314.709 719.691 309.677 723.442C305.696 726.411 292.064 726.955 287.02 724.347C280.349 720.897 276.976 712.359 278.437 702.62C279.282 696.986 282.576 692.045 287.02 689.747C292.064 687.139 305.696 687.683 309.677 690.652ZM127.815 781.931C127.53 791.975 127.669 793.051 129.25 793.049C130.657 793.047 131 792.165 131 788.547V784.047H134.845C139.34 784.047 142.25 781.471 142.25 777.491C142.25 773.567 139.765 771.775 133.615 771.265L128.129 770.81L127.815 781.931ZM156.311 772.999C152.758 775.165 150.728 780.435 151.657 785.081C153.237 792.982 164.042 796.255 169.928 790.616C179.888 781.074 168.093 765.815 156.311 772.999ZM185.223 772.604C182.722 774.355 182.194 779.133 184.308 780.887C185.027 781.484 187.389 782.552 189.558 783.26C192.707 784.288 193.563 785.093 193.813 787.262C194.068 789.474 193.644 790.098 191.523 790.631C189.779 791.068 188.329 790.75 187.131 789.666C184.905 787.651 183 787.58 183 789.512C183 791.606 186.225 793.047 190.911 793.047C194.117 793.047 195.292 792.531 196.587 790.554C199.296 786.42 197.791 783.41 191.982 781.347C187.217 779.655 185.131 777.263 186.494 775.056C187.466 773.485 192.714 773.86 193.362 775.547C194.098 777.465 197 777.51 197 775.604C197 773.603 193.074 771.047 190 771.047C188.595 771.047 186.445 771.748 185.223 772.604ZM223 780.382C223 785.608 222.727 790.595 222.393 791.465C221.958 792.599 222.383 793.047 223.893 793.047C225.755 793.047 226 792.465 226 788.047V783.047H231H236V788.047C236 792.408 236.26 793.047 238.034 793.047C239.97 793.047 240.054 792.533 239.784 782.297C239.552 773.534 239.223 771.547 238 771.547C236.92 771.547 236.415 772.877 236.195 776.297L235.89 781.047H231H226.11L225.805 776.375C225.634 773.764 224.949 771.522 224.25 771.292C223.309 770.982 223 773.228 223 780.382ZM255.692 775.297C254.869 777.634 253.031 782.585 251.607 786.297C249.26 792.414 249.182 793.047 250.771 793.047C251.736 793.047 252.97 792.034 253.513 790.797C254.326 788.943 255.292 788.547 259 788.547C262.708 788.547 263.674 788.943 264.487 790.797C265.03 792.034 266.247 793.047 267.192 793.047C269.015 793.047 269.22 793.792 262.315 775.297C261.269 772.495 260.125 771.047 258.958 771.047C257.777 771.047 256.69 772.461 255.692 775.297ZM278.75 771.617C278.337 772.037 278 777.03 278 782.714C278 792.38 278.129 793.047 280 793.047C281.709 793.047 282 792.38 282 788.464C282 782.873 283.336 782.976 287.316 788.874C289.006 791.378 290.911 793.047 292.079 793.047C293.903 793.047 293.862 792.789 291.435 788.944L288.845 784.841L290.922 782.63C293.382 780.012 293.659 774.839 291.439 772.997C289.663 771.523 279.887 770.46 278.75 771.617ZM304.667 771.714C304.3 772.08 304 777.03 304 782.714V793.047H309.55C318.679 793.047 323 789.409 323 781.722C323 777.566 320.606 774.198 316.401 772.441C312.935 770.993 305.828 770.552 304.667 771.714ZM331.218 772.196C331.814 773.773 334.362 782.688 335.963 788.797C336.778 791.905 337.585 793.047 338.968 793.047C340.414 793.047 341.239 791.697 342.48 787.297C345.78 775.598 345.49 775.794 347.859 783.655C349.036 787.564 350 791.308 350 791.974C350 792.648 350.959 793.044 352.158 792.867C353.97 792.598 354.773 790.942 357.156 782.547C360.462 770.902 360.445 771.047 358.528 771.047C357.155 771.047 356.06 773.922 353.194 785.047L352.292 788.547L351.092 784.047C347.005 768.72 345.264 767.528 342.113 777.901C340.951 781.727 340 785.65 340 786.619C340 790.02 338.481 786.811 336.5 779.227C334.985 773.426 334.04 771.48 332.604 771.206C331.339 770.965 330.878 771.294 331.218 772.196ZM374.685 775.297C367.709 793.982 367.962 793.047 369.884 793.047C370.871 793.047 372.203 791.896 372.844 790.49C373.867 788.245 374.527 787.97 378.255 788.24C381.531 788.477 382.725 789.06 383.487 790.797C384.03 792.034 385.247 793.047 386.192 793.047C388.015 793.047 388.22 793.792 381.315 775.297C380.289 772.548 379.118 771.047 378 771.047C376.882 771.047 375.711 772.548 374.685 775.297ZM397 781.927C397 792.38 397.12 793.047 399 793.047C400.704 793.047 401 792.38 401 788.547C401 786.072 401.467 784.047 402.038 784.047C402.61 784.047 404.297 786.058 405.788 788.515C407.709 791.68 409.167 792.993 410.786 793.015L413.072 793.047L410.536 789.315C407.477 784.813 407.407 783.898 410 782.279C412.467 780.738 412.728 774.896 410.416 772.977C409.545 772.254 406.17 771.47 402.916 771.235L397 770.807V781.927ZM423 782.047V793.047H429C435.827 793.047 437.204 791.321 430.75 790.854C426.625 790.556 426.491 790.437 426.19 786.797L425.879 783.047H429.94C432.173 783.047 434 782.597 434 782.047C434 781.497 432.2 781.047 430 781.047C426.095 781.047 426 780.964 426 777.547C426 774.066 426.024 774.047 430.5 774.047C433.833 774.047 435 773.658 435 772.547C435 771.38 433.667 771.047 429 771.047H423V782.047ZM462.762 772.12C457.236 775.34 458.93 780.603 466.412 783.46C471.094 785.248 472.239 787.408 469.8 789.847C468.064 791.583 465.925 791.325 463.549 789.093C460.564 786.288 458.248 787.897 460.776 791.019C462.166 792.735 463.669 793.32 466.694 793.32C471.573 793.32 472.823 792.643 474.088 789.315C475.454 785.723 473.108 782.587 467.799 780.907C464.243 779.782 463.5 779.115 463.5 777.047C463.5 773.958 466.901 773.164 470.207 775.479C472.989 777.428 474 777.461 474 775.604C474 772.114 466.672 769.843 462.762 772.12ZM490.388 772.027C486.69 773.521 484 777.951 484 782.547C484 787.974 486.837 791.657 492.112 793.077C495.446 793.975 496.735 793.853 499.801 792.351C504.112 790.24 505.965 787.047 505.985 781.697C505.997 778.641 505.299 777.146 502.6 774.447C499.071 770.918 495.087 770.128 490.388 772.027ZM516.667 771.714C516.3 772.08 516 777.03 516 782.714V793.047H521.5C527.679 793.047 529.046 791.337 523.25 790.857L519.5 790.547L519.214 780.797C518.95 771.799 518.431 769.949 516.667 771.714ZM536.688 771.693C535.236 773.145 535.959 787.543 537.601 789.888C539.884 793.147 543.601 794.334 547.497 793.048C551.785 791.633 553 788.532 553 779C553 772.597 552.708 771.047 551.5 771.047C550.292 771.047 550 772.603 550 779.047C550 785.714 549.667 787.38 548 789.047C545.674 791.373 544.072 791.551 541.619 789.757C540.206 788.724 539.82 786.803 539.678 780.09C539.514 772.381 538.591 769.789 536.688 771.693ZM563 772.503C563 773.552 563.962 774.047 566 774.047H569V783.547C569 791.325 569.272 793.047 570.5 793.047C571.727 793.047 572 791.332 572 783.613C572 774.27 572.024 774.177 574.531 773.863C579.938 773.188 577.229 771.536 570.25 771.253C564.254 771.01 563 771.226 563 772.503ZM588 782.047C588 791.158 588.258 793.047 589.5 793.047C590.742 793.047 591 791.158 591 782.047C591 772.936 590.742 771.047 589.5 771.047C588.258 771.047 588 772.936 588 782.047ZM607.388 771.976C601.703 774.411 599.391 782.036 602.51 788.067C604.479 791.874 606.835 793.047 612.511 793.047C616.309 793.047 617.686 792.515 620.077 790.124C626.43 783.771 622.432 772.449 613.5 771.497C611.3 771.263 608.55 771.478 607.388 771.976ZM633 782.047C633 791.023 633.269 793.047 634.46 793.047C635.598 793.047 635.983 791.23 636.21 784.799L636.5 776.55L641.785 784.799C645.564 790.695 647.651 793.047 649.105 793.047C651.045 793.047 651.125 792.546 650.82 782.297C650.56 773.55 650.22 771.547 649 771.547C647.818 771.547 647.437 773.225 647.205 779.471L646.91 787.394L641.437 779.221C633.907 767.973 633 768.277 633 782.047ZM663 773.047C660.721 775.326 660.372 779.281 662.308 780.887C663.027 781.484 665.345 782.552 667.46 783.26C672.174 784.838 673.938 787.212 672.07 789.463C670.271 791.631 667.326 791.451 665.268 789.047C663.309 786.759 661 786.405 661 788.392C661 792.725 671.054 794.855 674.345 791.218C676.299 789.059 676.522 784.706 674.75 783.3C674.063 782.754 671.848 781.776 669.83 781.126C665.479 779.725 663.732 777.908 664.59 775.674C665.382 773.61 670.322 773.525 672 775.547C673.546 777.41 675 777.485 675 775.702C675 771.362 666.553 769.494 663 773.047ZM138.5 777.547C138.5 780.292 138.181 780.573 134.75 780.857C131.05 781.164 131 781.119 131 777.547C131 773.975 131.05 773.93 134.75 774.237C138.181 774.521 138.5 774.802 138.5 777.547ZM167.686 776.221C169.299 777.737 170 779.52 170 782.111C170 786.686 167.531 789.842 163.316 790.656C156.505 791.971 152.354 782.681 157.073 776.682C159.694 773.349 164.411 773.145 167.686 776.221ZM289.5 777.523C289.5 779.836 288.914 780.705 286.867 781.425C282.811 782.851 281 781.646 281 777.521V773.932L285.25 774.24C289.229 774.527 289.5 774.737 289.5 777.523ZM316.92 775.797C318.097 776.759 319.318 779.156 319.633 781.122C320.449 786.224 316.919 790.233 311.45 790.415C307.537 790.546 307.497 790.51 307.174 786.547C306.995 784.347 307.135 780.634 307.486 778.297C308.088 774.276 308.302 774.047 311.45 774.047C313.281 774.047 315.742 774.835 316.92 775.797ZM408.827 776.852C409.269 779.972 407.334 782.047 403.983 782.047C401.473 782.047 401.173 781.663 400.824 778L400.438 773.953L404.469 774.25C407.81 774.496 408.556 774.942 408.827 776.852ZM500.927 776.682C503.901 780.462 503.593 784.608 500.077 788.124C496.349 791.852 493.618 791.819 489.8 788.001C487.166 785.367 486.834 784.453 487.346 781.251C488.483 774.147 496.747 771.367 500.927 776.682ZM616.92 775.797C618.097 776.759 619.328 779.214 619.654 781.251C620.166 784.453 619.834 785.367 617.2 788.001C613.53 791.671 611.029 791.836 607.328 788.653C603.588 785.436 603.356 778.797 606.884 775.94C609.809 773.571 614.121 773.51 616.92 775.797ZM261.036 780.63C262.116 783.151 263 785.401 263 785.63C263 785.859 261.241 786.047 259.092 786.047H255.184L256.783 781.047C257.662 778.297 258.537 776.047 258.726 776.047C258.916 776.047 259.955 778.109 261.036 780.63ZM379.799 780.368C381.567 785.256 381.316 786.047 378 786.047C374.689 786.047 374.384 785.111 376.098 780.196C377.494 776.19 378.302 776.227 379.799 780.368ZM0.667007 780.714C0.300007 781.08 0 781.98 0 782.714C0 783.808 9.5 784.047 53 784.047C105.333 784.047 106 784.022 106 782.047C106 780.072 105.333 780.047 53.667 780.047C24.883 780.047 1.03301 780.347 0.667007 780.714ZM696 782.047C696 784.022 696.667 784.047 749 784.047C801.333 784.047 802 784.022 802 782.047C802 780.072 801.333 780.047 749 780.047C696.667 780.047 696 780.072 696 782.047Z" fill="#001F52"/>
</svg>
